<?xml version="1.0" encoding="utf-8"?>
<!-- Generator: Adobe Illustrator 27.1.1, SVG Export Plug-In . SVG Version: 6.00 Build 0)  -->
<svg version="1.1" id="Слой_1" xmlns="http://www.w3.org/2000/svg" xmlns:xlink="http://www.w3.org/1999/xlink" x="0px" y="0px"
	 viewBox="0 0 1920 1080" style="enable-background:new 0 0 1920 1080;" xml:space="preserve">
<style type="text/css">
	.st0{fill:#EBE6D6;}
</style>
<g>
	<polygon class="st0" points="630.57,718.7 643.59,685.3 672.04,685.3 665.54,702 700.65,702 717.94,657.62 717.94,657.62 
		717.94,657.62 595.04,657.62 608.49,685.3 625.77,685.3 603.31,698.54 584.67,746.38 584.67,746.38 683.43,746.38 694.22,718.7 	
		"/>
	<polygon class="st0" points="1151.99,657.62 1136.6,697.11 1108.15,697.11 1108.15,697.11 1123.54,657.62 1088.42,657.62 
		1053.83,746.38 1088.94,746.38 1096.4,727.24 1096.4,727.24 1130.87,711.82 1117.4,746.38 1152.51,746.38 1187.1,657.62 	"/>
	<path class="st0" d="M794.85,657.62l-47.02,39.93l15.56-39.93h-35.11l-34.59,88.76h35.11l46.88-39.57l-15.42,39.57h35.11
		l29.34-75.27l9.2,14.19h22.13l-50.48,61.08h40.43l50.48-61.08h11.43l-23.8,61.08h35.11l29.5-75.7l9.48,14.62h22.13l-50.48,61.08
		h40.43l24-29.05l18.65,17.36l-4.55,11.69h35.11l34.59-88.76H794.85z M1024,706.27h-20.58l17.33-20.96h11.43L1024,706.27z"/>
	<polygon class="st0" points="1282.54,685.3 1293.33,657.62 1194.65,657.62 1183.86,685.3 1231.48,685.3 1209.02,698.54 
		1201.16,718.7 1188.88,718.7 1178.09,746.38 1239.12,746.38 1249.91,718.7 1236.28,718.7 1249.29,685.3 	"/>
</g>
</svg>
