<?xml version="1.0" encoding="utf-8"?>
<!-- Generator: Adobe Illustrator 27.1.1, SVG Export Plug-In . SVG Version: 6.00 Build 0)  -->
<svg version="1.1" id="Слой_1" xmlns="http://www.w3.org/2000/svg" xmlns:xlink="http://www.w3.org/1999/xlink" x="0px" y="0px"
	 viewBox="0 0 1920 1080" style="enable-background:new 0 0 1920 1080;" xml:space="preserve">
<style type="text/css">
	.st0{opacity:0.2;}
	.st1{fill:#666666;}
</style>
<g class="st0">
	<polygon class="st1" points="223.9,556.7 247.1,523.3 297.7,523.3 286.1,540 348.7,540 379.6,495.6 379.6,495.6 379.6,495.6 
		160.4,495.6 184.5,523.3 215.3,523.3 175.2,536.5 142,584.4 142,584.4 318.1,584.4 337.3,556.7 	"/>
	<polygon class="st1" points="1153.9,495.6 1126.5,535.1 1075.6,535.1 1075.6,535.1 1103.1,495.6 1040.5,495.6 978.8,584.4 
		1041.4,584.4 1054.8,565.2 1054.8,565.2 1116.3,549.8 1092.2,584.4 1154.8,584.4 1216.6,495.6 	"/>
	<path class="st1" d="M516.8,495.6l-83.8,39.9l27.8-39.9h-62.6l-61.7,88.8H399l83.7-39.6l-27.5,39.6h62.4l52.3-75.3l16.4,14.2h39.4
		l-90.1,61.1h72.1l90.1-61.1h20.3l-42.5,61.1h62.6l52.6-75.7l16.9,14.6h39.8l-90.1,61.1h72.2l42.8-29l33.4,17.4l-8,11.7h62.6
		l61.7-88.8H516.8V495.6z M925.6,544.3h-36.7l30.9-21h20.3L925.6,544.3z"/>
	<polygon class="st1" points="1386.7,523.3 1406,495.6 1229.9,495.6 1210.7,523.3 1295.8,523.3 1255.6,536.5 1241.5,556.7 
		1219.8,556.7 1200.5,584.4 1309.3,584.4 1328.6,556.7 1304.3,556.7 1327.5,523.3 	"/>
</g>
</svg>
